{"accessors" : [{"bufferView" : 0, "byteOffset" : 0, "componentType" : 5123, "count" : 390, "type" : "SCALAR", "max" : [66], "min" : [0]}, {"bufferView" : 1, "byteOffset" : 0, "componentType" : 5126, "count" : 67, "type" : "VEC3", "max" : [20, 20, 30], "min" : [-20, -20, 0], "name" : "POSITION"}], "asset" : {"generator" : "Aspose.3D 24.4.1", "version" : "2.0"}, "buffers" : [{"uri" : "data:application/octet-stream;base64,", "byteLength" : 1592}], "bufferViews" : [{"buffer" : 0, "byteOffset" : 0, "byteLength" : 780, "target" : 34963}, {"buffer" : 0, "byteOffset" : 784, "byteLength" : 804, "byteStride" : 12, "target" : 34962}], "meshes" : [{"primitives" : [{"attributes" : {"POSITION" : 1}, "indices" : 0, "mode" : 4}], "name" : ""}], "nodes" : [{"mesh" : 0, "name" : "Body1"}], "scene" : 0, "scenes" : [{"nodes" : [0]}]}